<svg width="0" height="0" class="hidden">
  <symbol xmlns="http://www.w3.org/2000/svg" viewBox="0 0 55.999 30.314" id="delivery-truck">
    <g id="delivery-truck" transform="translate(0.091 -11.305)">
      <path id="Path_161" d="M41.9,38.659a4.8,4.8,0,1,1,4.794-4.8,4.8,4.8,0,0,1-4.794,4.8Zm0-7.845a3.047,3.047,0,1,0,3.044,3.047A3.047,3.047,0,0,0,41.9,30.814Z" transform="translate(6.198 2.96)" fill="#3a61a0"></path>
      <path id="Path_162" d="M20.228,38.659a4.8,4.8,0,1,1,4.793-4.8,4.8,4.8,0,0,1-4.793,4.8Zm0-7.845a3.047,3.047,0,1,0,3.043,3.047,3.047,3.047,0,0,0-3.043-3.047Z" transform="translate(2.586 2.96)" fill="#3a61a0"></path>
      <path id="Path_163" d="M48.63,36.592H46.237a.875.875,0,0,1,0-1.75h2.146V30.2a3.687,3.687,0,0,0-.467-1.792l-4.737-8.492a.467.467,0,0,0-.407-.239H36.317V34.846H38.4a.875.875,0,0,1,0,1.75H35.442a.875.875,0,0,1-.875-.875V18.8a.875.875,0,0,1,.875-.875h7.33a2.217,2.217,0,0,1,1.937,1.136l4.735,8.493a5.439,5.439,0,0,1,.687,2.644v4.888A1.5,1.5,0,0,1,48.63,36.592Z" transform="translate(5.776 1.104)" fill="#3a61a0"></path>
      <path id="Path_164" d="M17.506,35.137H9.117a.875.875,0,0,1-.875-.875V27.533a.875.875,0,1,1,1.75,0v5.854h7.514a.875.875,0,1,1,0,1.75Z" transform="translate(1.389 2.559)" fill="#3a61a0"></path>
      <path id="Path_165" d="M9.117,25.836a.875.875,0,0,1-.875-.875V19.086a.875.875,0,0,1,1.75,0v5.879a.875.875,0,0,1-.875.872Z" transform="translate(1.389 1.151)" fill="#3a61a0"></path>
      <path id="Path_166" d="M39.829,37.7H25.343a.875.875,0,0,1,0-1.75H38.954V13.055H9.992v3.6a.875.875,0,0,1-1.75,0V12.894a1.591,1.591,0,0,1,1.59-1.589H39.115A1.591,1.591,0,0,1,40.7,12.894V36.821A.875.875,0,0,1,39.829,37.7Z" transform="translate(1.389)" fill="#3a61a0"></path>
      <path id="Path_167" d="M13.668,28.408H2.563a.875.875,0,0,1,0-1.75H13.668a.875.875,0,1,1,0,1.75Z" transform="translate(0.296 2.559)" fill="#3a61a0"></path>
      <path id="Path_168" d="M21.881,25H6.384a.875.875,0,1,1,0-1.75h15.5a.875.875,0,0,1,0,1.75Z" transform="translate(0.933 1.99)" fill="#3a61a0"></path>
      <path id="Path_169" d="M6.835,21.037H.784a.875.875,0,0,1,0-1.75H6.835a.875.875,0,0,1,0,1.75Z" transform="translate(0 1.33)" fill="#3a61a0"></path>
      <path id="Path_170" d="M15.814,16.894H5.132a.875.875,0,1,1,0-1.75H15.814a.875.875,0,1,1,0,1.75Z" transform="translate(0.725 0.64)" fill="#3a61a0"></path>
    </g>
  </symbol>
  <symbol xmlns="http://www.w3.org/2000/svg" viewBox="0 0 113.193 113.192" id="stamp">
    <g id="stamp" transform="translate(-222.016 -442.36) rotate(-20)">
      <g id="stamp-2">
        <circle id="Ellipse_41" cx="32.504" cy="32.504" r="32.504" transform="translate(58.039 531.039)" fill="#eaaca0"></circle>
        <g id="warranty" transform="translate(47 520)">
          <path id="Path_179" d="M49.213,16.332A32.881,32.881,0,1,0,82.095,49.213,32.881,32.881,0,0,0,49.213,16.332Zm0,63.348A30.467,30.467,0,1,1,79.68,49.213,30.467,30.467,0,0,1,49.213,79.68Z" transform="translate(-5.057 -5.056)" fill="#eaaca0"></path>
          <path id="Path_180" d="M86.931,48.015a6.156,6.156,0,0,0,0-7.744L84.952,37.8a3.782,3.782,0,0,1-.678-3.421l.883-3.029a6.232,6.232,0,0,0-2.97-7.166l-2.764-1.518a3.781,3.781,0,0,1-1.942-2.9l-.345-3.142a6.156,6.156,0,0,0-5.478-5.478l-3.142-.345a3.779,3.779,0,0,1-2.9-1.941L64.1,6.1a6.156,6.156,0,0,0-7.167-2.97l-3.028.882a3.788,3.788,0,0,1-3.422-.679L48.015,1.355a6.159,6.159,0,0,0-7.744,0L37.8,3.334a3.794,3.794,0,0,1-3.421.678l-3.029-.883A6.231,6.231,0,0,0,24.186,6.1L22.668,8.863a3.781,3.781,0,0,1-2.9,1.942l-3.142.345a6.156,6.156,0,0,0-5.478,5.478l-.345,3.142a3.779,3.779,0,0,1-1.941,2.9L6.1,24.184a6.158,6.158,0,0,0-2.97,7.167l.884,3.028A3.788,3.788,0,0,1,3.335,37.8L1.357,40.27a6.156,6.156,0,0,0,0,7.744l1.978,2.469A3.782,3.782,0,0,1,4.013,53.9L3.13,56.933A6.232,6.232,0,0,0,6.1,64.1l2.764,1.518a3.782,3.782,0,0,1,1.942,2.9l.345,3.142a6.156,6.156,0,0,0,5.478,5.478l3.142.345a3.779,3.779,0,0,1,2.9,1.941l1.518,2.765a6.156,6.156,0,0,0,7.167,2.97l3.028-.884a3.794,3.794,0,0,1,3.422.679l2.469,1.978a6.156,6.156,0,0,0,7.744,0l2.469-1.978a3.784,3.784,0,0,1,3.421-.678l3.029.883a6.157,6.157,0,0,0,7.166-2.97l1.518-2.764a3.782,3.782,0,0,1,2.9-1.942l3.142-.345a6.156,6.156,0,0,0,5.478-5.478l.345-3.142a3.779,3.779,0,0,1,1.941-2.9L82.185,64.1a6.158,6.158,0,0,0,2.97-7.167l-.884-3.028a3.788,3.788,0,0,1,.679-3.422Zm-3.863.961a6.2,6.2,0,0,0-1.112,5.607l.884,3.028a3.757,3.757,0,0,1-1.813,4.373L78.262,63.5a6.194,6.194,0,0,0-3.18,4.753L74.737,71.4a3.759,3.759,0,0,1-3.343,3.343l-3.143.345A6.2,6.2,0,0,0,63.5,78.264l-1.518,2.765a3.759,3.759,0,0,1-4.372,1.813l-3.028-.884a6.2,6.2,0,0,0-5.606,1.111l-2.469,1.978a3.757,3.757,0,0,1-4.727,0L39.31,83.069A6.2,6.2,0,0,0,33.7,81.957l-3.027.884A3.761,3.761,0,0,1,26.3,81.028l-1.518-2.765a6.194,6.194,0,0,0-4.753-3.18l-3.142-.345a3.759,3.759,0,0,1-3.343-3.343L13.2,68.252A6.2,6.2,0,0,0,10.022,63.5L7.257,61.982A3.8,3.8,0,0,1,5.445,57.61l.884-3.028a6.2,6.2,0,0,0-1.111-5.606l-1.98-2.469a3.758,3.758,0,0,1,0-4.727L5.216,39.31A6.2,6.2,0,0,0,6.328,33.7l-.883-3.028A3.757,3.757,0,0,1,7.258,26.3l2.765-1.518a6.194,6.194,0,0,0,3.18-4.753l.345-3.142A3.759,3.759,0,0,1,16.9,13.549l3.143-.345a6.2,6.2,0,0,0,4.753-3.181l1.518-2.765a3.8,3.8,0,0,1,4.367-1.814l3.028.884A6.2,6.2,0,0,0,39.31,5.217l2.469-1.98a3.757,3.757,0,0,1,4.726,0l2.469,1.978a6.208,6.208,0,0,0,5.607,1.112l3.028-.883a3.762,3.762,0,0,1,4.373,1.813L63.5,10.023a6.194,6.194,0,0,0,4.753,3.18l3.142.345a3.759,3.759,0,0,1,3.343,3.343l.345,3.143a6.2,6.2,0,0,0,3.181,4.753L81.029,26.3a3.8,3.8,0,0,1,1.813,4.372L81.958,33.7a6.2,6.2,0,0,0,1.111,5.606l1.978,2.469a3.758,3.758,0,0,1,0,4.727Z" transform="translate(0.013 0.014)" fill="#eaaca0"></path>
        </g>
      </g><text id="Best_Seller" data-name="Best 
Seller" transform="translate(92.305 559.078)" fill="#45516d" font-size="18" font-family="Assistant-ExtraBold, Assistant" font-weight="800">
        <tspan x="-19" y="0">Best </tspan>
        <tspan x="-23" y="19">Seller</tspan>
      </text>
    </g>
  </symbol>
  <symbol xmlns="http://www.w3.org/2000/svg" viewBox="0 0 113.193 113.192" id="stamp_green">
    <g id="stamp_green" transform="translate(-222.016 -442.36) rotate(-20)">
      <g id="Group_188">
        <circle id="Ellipse_41" cx="32.504" cy="32.504" r="32.504" transform="translate(58.039 531.039)" fill="#7fb457"></circle>
        <g id="warranty" transform="translate(47 520)">
          <path id="Path_179" d="M49.213,16.332A32.881,32.881,0,1,0,82.095,49.213,32.881,32.881,0,0,0,49.213,16.332Zm0,63.348A30.467,30.467,0,1,1,79.68,49.213,30.467,30.467,0,0,1,49.213,79.68Z" transform="translate(-5.057 -5.056)" fill="#7fb457"></path>
          <path id="Path_180" d="M86.931,48.015a6.156,6.156,0,0,0,0-7.744L84.952,37.8a3.782,3.782,0,0,1-.678-3.421l.883-3.029a6.232,6.232,0,0,0-2.97-7.166l-2.764-1.518a3.781,3.781,0,0,1-1.942-2.9l-.345-3.142a6.156,6.156,0,0,0-5.478-5.478l-3.142-.345a3.779,3.779,0,0,1-2.9-1.941L64.1,6.1a6.156,6.156,0,0,0-7.167-2.97l-3.028.882a3.788,3.788,0,0,1-3.422-.679L48.015,1.355a6.159,6.159,0,0,0-7.744,0L37.8,3.334a3.794,3.794,0,0,1-3.421.678l-3.029-.883A6.231,6.231,0,0,0,24.186,6.1L22.668,8.863a3.781,3.781,0,0,1-2.9,1.942l-3.142.345a6.156,6.156,0,0,0-5.478,5.478l-.345,3.142a3.779,3.779,0,0,1-1.941,2.9L6.1,24.184a6.158,6.158,0,0,0-2.97,7.167l.884,3.028A3.788,3.788,0,0,1,3.335,37.8L1.357,40.27a6.156,6.156,0,0,0,0,7.744l1.978,2.469A3.782,3.782,0,0,1,4.013,53.9L3.13,56.933A6.232,6.232,0,0,0,6.1,64.1l2.764,1.518a3.782,3.782,0,0,1,1.942,2.9l.345,3.142a6.156,6.156,0,0,0,5.478,5.478l3.142.345a3.779,3.779,0,0,1,2.9,1.941l1.518,2.765a6.156,6.156,0,0,0,7.167,2.97l3.028-.884a3.794,3.794,0,0,1,3.422.679l2.469,1.978a6.156,6.156,0,0,0,7.744,0l2.469-1.978a3.784,3.784,0,0,1,3.421-.678l3.029.883a6.157,6.157,0,0,0,7.166-2.97l1.518-2.764a3.782,3.782,0,0,1,2.9-1.942l3.142-.345a6.156,6.156,0,0,0,5.478-5.478l.345-3.142a3.779,3.779,0,0,1,1.941-2.9L82.185,64.1a6.158,6.158,0,0,0,2.97-7.167l-.884-3.028a3.788,3.788,0,0,1,.679-3.422Zm-3.863.961a6.2,6.2,0,0,0-1.112,5.607l.884,3.028a3.757,3.757,0,0,1-1.813,4.373L78.262,63.5a6.194,6.194,0,0,0-3.18,4.753L74.737,71.4a3.759,3.759,0,0,1-3.343,3.343l-3.143.345A6.2,6.2,0,0,0,63.5,78.264l-1.518,2.765a3.759,3.759,0,0,1-4.372,1.813l-3.028-.884a6.2,6.2,0,0,0-5.606,1.111l-2.469,1.978a3.757,3.757,0,0,1-4.727,0L39.31,83.069A6.2,6.2,0,0,0,33.7,81.957l-3.027.884A3.761,3.761,0,0,1,26.3,81.028l-1.518-2.765a6.194,6.194,0,0,0-4.753-3.18l-3.142-.345a3.759,3.759,0,0,1-3.343-3.343L13.2,68.252A6.2,6.2,0,0,0,10.022,63.5L7.257,61.982A3.8,3.8,0,0,1,5.445,57.61l.884-3.028a6.2,6.2,0,0,0-1.111-5.606l-1.98-2.469a3.758,3.758,0,0,1,0-4.727L5.216,39.31A6.2,6.2,0,0,0,6.328,33.7l-.883-3.028A3.757,3.757,0,0,1,7.258,26.3l2.765-1.518a6.194,6.194,0,0,0,3.18-4.753l.345-3.142A3.759,3.759,0,0,1,16.9,13.549l3.143-.345a6.2,6.2,0,0,0,4.753-3.181l1.518-2.765a3.8,3.8,0,0,1,4.367-1.814l3.028.884A6.2,6.2,0,0,0,39.31,5.217l2.469-1.98a3.757,3.757,0,0,1,4.726,0l2.469,1.978a6.208,6.208,0,0,0,5.607,1.112l3.028-.883a3.762,3.762,0,0,1,4.373,1.813L63.5,10.023a6.194,6.194,0,0,0,4.753,3.18l3.142.345a3.759,3.759,0,0,1,3.343,3.343l.345,3.143a6.2,6.2,0,0,0,3.181,4.753L81.029,26.3a3.8,3.8,0,0,1,1.813,4.372L81.958,33.7a6.2,6.2,0,0,0,1.111,5.606l1.978,2.469a3.758,3.758,0,0,1,0,4.727Z" transform="translate(0.013 0.014)" fill="#7fb457"></path>
        </g>
      </g><text id="Best_Value" data-name="Best 
Value" transform="translate(92.305 559.078)" fill="#fff" font-size="18" font-family="Assistant-ExtraBold, Assistant" font-weight="800">
        <tspan x="-19" y="0">Best </tspan>
        <tspan x="-22" y="19">Value</tspan>
      </text>
    </g>
  </symbol>
  <symbol xmlns="http://www.w3.org/2000/svg" viewBox="0 0 44 26.627" id="united-states-of-america">
    <g id="united-states-of-america" transform="translate(0 -89.029)">
      <g id="Group_51" transform="translate(0 89.029)">
        <g id="Group_50" transform="translate(0 0)">
          <path id="Path_171" d="M34.38,123.756h-.4v-.406a.865.865,0,0,0-1.729,0v.405H31.84a.865.865,0,1,0,0,1.729h.405v.406a.865.865,0,0,0,1.729,0v-.406h.405a.865.865,0,1,0,0-1.729Z" transform="translate(-27.953 -119.222)" fill="#3a61a0"></path>
          <path id="Path_172" d="M34.38,184.517h-.4v-.406a.865.865,0,1,0-1.729,0v.406H31.84a.865.865,0,1,0,0,1.729h.405v.405a.865.865,0,0,0,1.729,0v-.405h.405a.865.865,0,0,0,0-1.729Z" transform="translate(-27.953 -174.053)" fill="#3a61a0"></path>
          <path id="Path_173" d="M150.486,123.756h-.406v-.406a.865.865,0,0,0-1.729,0v.405h-.405a.865.865,0,0,0,0,1.729h.405v.406a.865.865,0,0,0,1.729,0v-.406h.406a.865.865,0,0,0,0-1.729Z" transform="translate(-132.729 -119.222)" fill="#3a61a0"></path>
          <path id="Path_174" d="M150.486,184.517h-.406v-.406a.865.865,0,1,0-1.729,0v.406h-.405a.865.865,0,1,0,0,1.729h.405v.405a.865.865,0,0,0,1.729,0v-.405h.406a.865.865,0,1,0,0-1.729Z" transform="translate(-132.729 -174.053)" fill="#3a61a0"></path>
          <path id="Path_175" d="M92.434,123.756h-.405v-.406a.865.865,0,0,0-1.729,0v.405h-.406a.865.865,0,1,0,0,1.729H90.3v.406a.865.865,0,1,0,1.729,0v-.406h.405a.865.865,0,1,0,0-1.729Z" transform="translate(-80.341 -119.222)" fill="#3a61a0"></path>
          <path id="Path_176" d="M92.434,184.517h-.405v-.406a.865.865,0,1,0-1.729,0v.406h-.406a.865.865,0,1,0,0,1.729H90.3v.405a.865.865,0,0,0,1.729,0v-.405h.405a.865.865,0,1,0,0-1.729Z" transform="translate(-80.341 -174.053)" fill="#3a61a0"></path>
          <path id="Path_177" d="M43.135,89.029H.865A.865.865,0,0,0,0,89.894v24.9a.865.865,0,0,0,.865.865H43.135a.865.865,0,0,0,.865-.865v-24.9A.865.865,0,0,0,43.135,89.029ZM1.729,90.754H19.915v13.274H1.729Zm40.541,23.168H1.729v-3.266H42.271Zm0-5H1.729v-3.17H42.271Zm0-4.9H21.645v-3.266H42.271v3.266Zm0-5H21.645V95.763H42.271v3.266Zm0-5.008H21.645V90.754H42.271v3.266Z" transform="translate(0 -89.029)" fill="#3a61a0"></path>
        </g>
      </g>
    </g>
  </symbol>
  <symbol xmlns="http://www.w3.org/2000/svg" viewBox="0 0 200 135.951" id="90days">
    <g id="_90days" transform="translate(-114.077 -937.752)">
      <g id="warranty" transform="translate(146.126 937.752)">
        <path id="Path_179" d="M66.95,16.332A50.618,50.618,0,1,0,117.568,66.95,50.618,50.618,0,0,0,66.95,16.332Zm0,97.52a46.9,46.9,0,1,1,46.9-46.9A46.9,46.9,0,0,1,66.95,113.852Z" transform="translate(1.025 1.026)" fill="#3a61a0"></path>
        <path id="Path_180" d="M133.83,73.922a9.477,9.477,0,0,0,0-11.921l-3.046-3.8a5.822,5.822,0,0,1-1.044-5.266l1.359-4.663a9.594,9.594,0,0,0-4.572-11.032L122.272,34.9a5.821,5.821,0,0,1-2.989-4.46l-.531-4.837a9.476,9.476,0,0,0-8.432-8.432l-4.837-.531a5.818,5.818,0,0,1-4.46-2.988L98.686,9.4A9.476,9.476,0,0,0,87.653,4.826L82.992,6.184a5.831,5.831,0,0,1-5.268-1.045l-3.8-3.046A9.481,9.481,0,0,0,62,2.094L58.2,5.139a5.84,5.84,0,0,1-5.266,1.044L48.271,4.824A9.592,9.592,0,0,0,37.239,9.4L34.9,13.651a5.821,5.821,0,0,1-4.46,2.989l-4.837.531A9.476,9.476,0,0,0,17.174,25.6l-.531,4.837a5.818,5.818,0,0,1-2.988,4.46L9.4,37.237A9.479,9.479,0,0,0,4.826,48.27l1.36,4.661A5.831,5.831,0,0,1,5.141,58.2L2.1,62a9.477,9.477,0,0,0,0,11.921l3.045,3.8a5.822,5.822,0,0,1,1.044,5.266L4.826,87.651A9.594,9.594,0,0,0,9.4,98.684l4.255,2.336a5.821,5.821,0,0,1,2.989,4.46l.531,4.837A9.476,9.476,0,0,0,25.6,118.75l4.837.531a5.818,5.818,0,0,1,4.46,2.988l2.336,4.256A9.476,9.476,0,0,0,48.27,131.1l4.661-1.36a5.84,5.84,0,0,1,5.268,1.045l3.8,3.045a9.477,9.477,0,0,0,11.921,0l3.8-3.045a5.825,5.825,0,0,1,5.266-1.044l4.663,1.359a9.478,9.478,0,0,0,11.032-4.573l2.336-4.255a5.821,5.821,0,0,1,4.46-2.989l4.837-.531a9.476,9.476,0,0,0,8.432-8.432l.531-4.837a5.818,5.818,0,0,1,2.988-4.46l4.256-2.336A9.479,9.479,0,0,0,131.1,87.651l-1.36-4.661a5.831,5.831,0,0,1,1.045-5.268ZM127.883,75.4a9.55,9.55,0,0,0-1.712,8.631l1.361,4.661a5.784,5.784,0,0,1-2.791,6.731l-4.257,2.336a9.536,9.536,0,0,0-4.9,7.317l-.531,4.837a5.787,5.787,0,0,1-5.146,5.146l-4.838.531a9.54,9.54,0,0,0-7.316,4.9l-2.336,4.256a5.787,5.787,0,0,1-6.73,2.791l-4.662-1.36a9.54,9.54,0,0,0-8.63,1.711l-3.8,3.046a5.783,5.783,0,0,1-7.276,0l-3.8-3.046a9.547,9.547,0,0,0-8.631-1.712l-4.66,1.36a5.79,5.79,0,0,1-6.731-2.791l-2.336-4.257a9.536,9.536,0,0,0-7.317-4.9l-4.837-.531a5.787,5.787,0,0,1-5.146-5.146l-.531-4.838a9.54,9.54,0,0,0-4.9-7.316l-4.256-2.336a5.853,5.853,0,0,1-2.79-6.73l1.36-4.662A9.544,9.544,0,0,0,8.039,75.4L4.992,71.6a5.785,5.785,0,0,1,0-7.276l3.045-3.8a9.55,9.55,0,0,0,1.712-8.631L8.39,47.231A5.784,5.784,0,0,1,11.18,40.5l4.257-2.336a9.536,9.536,0,0,0,4.9-7.317l.531-4.837a5.787,5.787,0,0,1,5.153-5.143l4.838-.531a9.54,9.54,0,0,0,7.316-4.9l2.336-4.256A5.857,5.857,0,0,1,47.23,8.39l4.662,1.36a9.542,9.542,0,0,0,8.63-1.711l3.8-3.048a5.784,5.784,0,0,1,7.276,0l3.8,3.046a9.557,9.557,0,0,0,8.631,1.712L88.693,8.39a5.792,5.792,0,0,1,6.731,2.791l2.336,4.257a9.536,9.536,0,0,0,7.317,4.9l4.837.531a5.787,5.787,0,0,1,5.146,5.146l.531,4.838a9.54,9.54,0,0,0,4.9,7.316l4.256,2.336a5.854,5.854,0,0,1,2.791,6.73l-1.36,4.662a9.544,9.544,0,0,0,1.711,8.63l3.045,3.8a5.785,5.785,0,0,1,0,7.276Z" transform="translate(0.013 0.014)" fill="#3a61a0"></path>
      </g>
      <path id="Path_181" d="M0,0,100,1.749,200,0l-6.593,37.979L200,72,100,69.97,0,72,5.673,38.177Z" transform="translate(114.077 969.704)" fill="#3a61a0"></path><text id="Money_back_guarantee" transform="translate(214.077 1027.703)" fill="#fff" font-size="16" font-family="Assistant-Regular, Assistant">
        <tspan x="-86" y="0">MONEY BACK GUARANTEE</tspan>
      </text><text id="_90_DAY" transform="translate(214.077 1004.703)" fill="#fff" font-size="32" font-family="Assistant-ExtraBold, Assistant" font-weight="800">
        <tspan x="-48" y="0">90 DAY</tspan>
      </text>
    </g>
  </symbol>
</svg>